<svg xmlns="http://www.w3.org/2000/svg" viewBox="0 0 300 300"><defs><style>.a{fill:#f97d7d;}.b{fill-rule:evenodd;}</style></defs><title>Learning Online</title><path class="a" d="M28.95,125.721c30.626-.28,61.131.073,91.79-.535a1.232,1.232,0,1,1,.169,2.445c-30.314.6-61.495,1.291-91.793.488C27.37,128.073,27.154,125.738,28.95,125.721ZM97.783,79.3c5.107,22.745-26.2,35.444-40.448,21.056C50.8,93.752,49.775,83,53.33,74.687c5.309-12.415,19.016-15.979,30.912-10.88C90.726,66.586,96.139,71.975,97.783,79.3Zm-2.835-2.56a18.98,18.98,0,0,0-11.01-10.892c-13.354-4.677-26.284-2-30.149,12.929-2.041,7.881.157,17.426,7.079,22.268C76.772,112.17,103.16,96.723,94.948,76.741ZM30.071,57.217c0-.759-1.233-.741-1.3-.01-1.663,17.491-.84,35.816-.778,53.4.01,2.636.931,2.829,2.581,2.937,26.214,1.726,62.208.759,88.37-.4.945-.042.972-1.648,0-1.665-29.228-.547-59.975,1.462-88.735-.263C30.659,93.58,30.164,74.96,30.071,57.217Zm91.487,54.563c.1.779,1.644.884,1.628.012-.342-18.369-.184-36.875-.659-55.187-.066-2.518-.109-2.3-2.841-2.411-28-1.09-59.234-.552-87.122,1.054a.8.8,0,0,0,.074,1.6c29.25-.1,58.814-1.282,88.03-.336C119.6,71.063,119.743,97.514,121.558,111.78ZM84.552,83.631c-3.437-2.016-8.265-5.171-12.116-7.276-2.571-1.408-2.771.519-.931,1.792,2.594,1.794,7.41,4.095,10.734,6.418-3.814,2.351-7.47,4.829-11.352,7.172-.556-5.116-.813-10.152-1.546-15.282-.131-.92-1.409-.651-1.385.222.155,5.681.934,11.262,1.128,16.867a1,1,0,0,0,1.395.756c3.342-1.727,11.349-6.477,14.313-9.055A.982.982,0,0,0,84.552,83.631Zm94.9-14.15c4.185-.269,4.04-2.974-.272-2.673-13.188.921-26.686.67-39.9.331-5.814-.149-6.392,2.266-.423,2.492C151.756,70.121,166.607,70.305,179.448,69.481Zm12.944,46.14a111.335,111.335,0,0,0-.08-13.05c-.061-.66-1.266-.751-1.379-.079-.565,3.38.15,9.53.012,13.2C190.915,116.484,192.342,116.415,192.392,115.621ZM30.626,24.556c16.711-.049,141.219-.853,147.806-.586,14.488.588,15.346,17.565,13.609,17.836-1.852.289-174.443-.834-176.264-.98C14.511,40.724,13.915,24.605,30.626,24.556Zm145.4,9.2a3.182,3.182,0,0,0,3.592,3.188,3.219,3.219,0,1,0-2.084-5.977A3.235,3.235,0,0,0,176.026,33.752ZM165.2,35.879a3.259,3.259,0,0,0,4.054.751,3.4,3.4,0,0,0,1.328-3.837,3.29,3.29,0,0,0-3.482-2.117A3.174,3.174,0,0,0,165.2,35.879Zm-11.924.2a3.392,3.392,0,0,0,3.879.344c2.125-1.174,2.075-4.715-.351-5.549a3.606,3.606,0,0,0-3.909,1.3A3.051,3.051,0,0,0,153.274,36.076Zm37.64,9.573c.278,13.878-.953,27.763-.214,41.74.043.819,1.422.762,1.409-.032-.223-13.763,1.228-28.009.242-41.74C192.292,44.792,190.9,44.836,190.914,45.649ZM180.9,55.523c-15.556.727-30.8-.307-46.291-.309-.61,0-.723,1.1-.13,1.359,4.762,2.056,39.437,1.822,46.487,1.291A1.172,1.172,0,0,0,180.9,55.523ZM26.768,147.9c11.093.058,22.725,1.077,31.56.432.8-.059.911-1.417.07-1.441-10.459-.3-20.472-.972-30.368-1.191-6.7-.149-10.427-2.812-11.111-9.805-1.153-11.806-.7-26.8-.766-38.832C16.077,83.873,17.312,47.48,17,43.791a.8.8,0,0,0-1.58-.147c-.439,2.184-1.117,28.841-1.353,49.467-.15,13.068-.729,31.12.641,43.7C15.432,143.483,19.92,147.867,26.768,147.9Zm120.416-2.158c-18.982,1.17-40.817.4-60.4.9-.841.021-.844,1.461.01,1.484,19.392.517,41.055-.358,60.4-.337C148.358,147.789,148.359,145.673,147.184,145.745Zm-9.776-65.2c-2.242.531-1.947,1.982.316,1.983,3.584,0,7.455-.4,11.168-.445,2.375-.028,3.39-1.9-.478-2.2A51.654,51.654,0,0,0,137.408,80.541Zm60.841,95.528a44.214,44.214,0,0,0-7.562-13.715c-.475-.631.322-1.6.978-1.054a27.559,27.559,0,0,1,8.3,14.306,30,30,0,0,1,28.352,7.14c.98-25.385-20.288-42.635-41.458-44.2-3.122,7.251-16.848,10.093-19.41,2.579-10.683,2.123-26.077,9.8-31.6,18.972,6.992-.045,11.852-.056,15.583.63,3.56.655,5.957,3.182,6.141,6.207a115.719,115.719,0,0,0,2.091,17.281c2.712-7.022,9.115-8.786,14.833-8.917C179.452,175.184,191.46,177.687,198.249,176.069Zm-4.065-50.906a90.506,90.506,0,0,1,28.243-1.4c9.213.966,15.044,2.188,17.22,12.3,3.247,15.091-.133,39.365-5.333,53.893-4.475,12.5-12.674,11.32-23.613,12.151-.84.064-1.065,1.513-.142,1.543,10.408.34,19.2-.073,23.972-8.543,7.358-13.061,10.025-42.249,7.867-57.2-1.414-9.79-5.571-14.5-15.556-15.8-10.237-1.334-23.242-1.624-33.11,1.566A.779.779,0,0,0,194.184,125.163Zm46.991,2.635c6.694,2.42,13.937,5.019,18.8,10.481,10.956,12.3,5.1,32.5,2.368,46.869-3.033,15.959-5.927,31.944-8.946,47.9-.944,4.99.945,6.542,1.832,2.081,3.167-15.924,6.142-31.925,9.185-47.876,2.888-15.141,8.817-35.272-1.237-48.9-5.125-6.945-13.532-9.637-21.487-11.876C240.838,126.244,240.3,127.482,241.175,127.8Zm-38.7,141.331c-.375,1.554,1.954,1.993,2.34.352,3.456-14.678,8.15-32.132,9.822-46.686,1.325-11.534.38-18.965-12.664-20.2-10.47-1-19.134,3.212-21.04,14.22-2.491,14.388-1,37.637-.486,52.994a.727.727,0,0,0,1.454.016c.444-15.361-.256-31.167.663-46.383.629-10.423,3.127-18.14,15.187-18.75,13.254-.669,15.9,4.385,14.739,16.732C211.014,237.087,204.917,259.036,202.478,269.129Zm64.264-22.951c1.423-2.735,6.182-7.6,8.948-7.617,2.3-.011.823,4.511,1.553,7.061,5.942.522,7.038.452,11.022,4.338.509.5,1.122.236.686-.49a10.975,10.975,0,0,0-3.723-3.83c2.025-3.047,5.229-4.823,6.188-4.691,1.812.249-.455,6.37.71,11.223.787,3.279,2.2,7.086.837,10.931-1.059,2.99-2.763,5.712-7.915,7.34-4.73,1.5-13.683.357-17.717-1.88,5.891-3.574,3.75-12.358-5.282-9.471-12.246,3.914-18.413,4.8-31.3,2.634-.909-.152-1.122.854-.176,1.034a59.74,59.74,0,0,0,31.1-1.7c4.889-1.543,8.334,1.521,5.992,4.773-2.375,3.3-8.728,4.516-12.581,5.1-11.64,1.77-23.966.469-29.332-.177-9.977-1.2-4.874-26.632,21.113-30.1,7.444-.994,15.089,1.086,19.269,3.849a26.655,26.655,0,0,0-3.618,11c-.054.755.774.578.942-.162A37.619,37.619,0,0,1,266.742,246.178Zm-26.074-2.43c-1.514.8-2.576,2.785-3.1,4.355a9.319,9.319,0,0,0-.235,5.253c.2.81,1.019.889,1.018.036a10.649,10.649,0,0,1,.991-4.668c.251-.537,1.608-2.66,2.148-3.544C242.054,244.26,241.576,243.272,240.668,243.748Zm7.722-1.8c-2.145,1.159-3.4,3.724-4.157,5.943a13.047,13.047,0,0,0-.2,7.286c.176.772,1.006.715,1.056-.05.182-2.8.652-6.762,2.683-9.357a22.83,22.83,0,0,0,1.721-2.551C250.074,242.22,249.147,241.534,248.39,241.943Zm6.557,1.552a13.758,13.758,0,0,0-3.057,4.149,10.8,10.8,0,0,0-.932,6.528c.153.789,1,.925,1.09.059a13.87,13.87,0,0,1,2.2-6.054,18.187,18.187,0,0,1,2.323-2.867C258.8,243.044,257.023,241.665,254.947,243.5Zm31,14.525a1.855,1.855,0,0,1,2.421.482c.621.855,1.282.373.929-.684a2.426,2.426,0,0,0-3.947-.742A.571.571,0,0,0,285.946,258.02Zm-6.187,1.917c.1.741,1.417,2.25,2.25,2.21.98-.047,2.354-1.073,2.258-2.053S279.614,258.851,279.759,259.937Zm-4.886-2.284a2.208,2.208,0,0,1,2.757-.368c.815.607,1.545-.149.849-.851a2.839,2.839,0,0,0-4.537.611C273.508,257.753,274.4,258.111,274.873,257.653ZM100.722,182.508c.335-2.793.5-4.166-2.476-4.311-8.556-.415-14.638,1.745-19.889,5.832-5.74,4.467-10.065,11.621-10.463,18.988a.7.7,0,0,0,1.387.241c1.349-6.92,4.527-13.247,10.191-17.644,6.015-4.67,12.443-6.148,19.854-5.605A32.421,32.421,0,0,1,90.7,199.87c-6.009,6.408-11,7.834-18.984,9.642a.7.7,0,0,0,.177,1.374c6.943-.087,15.336-4.811,20.05-9.756A33.67,33.67,0,0,0,100.722,182.508Zm60.118,87.353c-2.339-5.13-8.152-11.71-14.482-10.432-3.95.8-8.31,5.024-10.243,8.454-1.015,1.8-.558,3.872,1.723,4.159a124.532,124.532,0,0,0,15.9.412c5.159-.061,12.92-.361,17.819-1.656.916-.241.462-1.49-.341-1.5C167.772,269.227,164.3,269.613,160.84,269.861Zm-46.294,2.163c5.96.337,14.087.312,19.733-1.08.876-.215.485-1.46-.313-1.46-.82,0-1.639.028-2.457.057-1.283-3.139-2.847-6.332-5.945-8.026-4.982-2.722-10.243,1.208-13.666,4.67C107.473,270.661,109.981,271.766,114.546,272.024Zm-64.04-70.469a.77.77,0,0,0-.019-1.539c-8.053-.039-15.827-1.325-22.991-5.177C16.983,189.185,10.7,180.7,6.8,169.689c6.461-.8,16.864-1.3,25.955,1.29,13.761,3.915,19.411,13.292,22.007,26.462.159.808,1.541.713,1.468-.142-2.287-26.461-26.04-31.933-48.73-29.5-2.507.269-3.024.41-2.028,3.041,2.4,6.343,5.745,12.707,10.359,17.521C24.25,197.145,38.221,203.128,50.506,201.555Zm243.815,72.187c-19.521-.5-20.443-.4-39.967-.38s-39.062.139-58.592.165q-58.291.076-116.584.335c-21.792.072-44.032-.263-65.768.527-.768.028-.783,1.332-.011,1.356,19.509.6,39.075.225,58.589.184q29.3-.062,58.591-.134c38.861-.111,77.723-.3,116.584-.322,21.912-.013,25.241.555,47.145-.121C295.221,275.324,295.236,273.766,294.321,273.742Zm-217.137-3.5c1.767-9.424,4.173-22.706,4.8-32.088,2.239-.172,2.5-.413,2.954-2.761a46.276,46.276,0,0,0,.913-5.842c.173-2.8.578-4.02-2.621-4.09-13.177-.288-29.217-.413-42.24.469a.69.69,0,0,0,.041,1.379c14.193.9,29.324-.87,43.042.341a39.243,39.243,0,0,1-1,8.532c-14.092.976-27.474.837-41.557.664a58.97,58.97,0,0,1-2.1-8.961c-.136-.8-1.492-.776-1.471.079a31.108,31.108,0,0,0,1.706,9.074c.511,1.531,1.633,1.774,3.267,1.763,12.659-.085,24.707.274,37.422-.538-1.313,12.371-3.33,20.508-4.67,29.947C75.205,271.541,76.816,272.211,77.184,270.247Zm33.475-63.87c.743.017,1.044-1.182.248-1.344-4.786-.975-10.187-1.312-14.226,1.965-5.044,4.093-3.142,12.492-2.245,18.212,1.688,10.774,7.276,34.05,11.535,45.208.353.925,1.862.324,1.6-.586C104.188,258,99.2,241.012,96.549,225c-.652-3.927-2.083-10.617-.311-14.223C98.829,205.509,105.823,206.269,110.659,206.377ZM42.883,241.551c.419,6.059,3.423,23.111,5.647,28.373a.809.809,0,0,0,1.521-.463c-2.3-9.331-3.907-16.3-5.76-28.151C44.152,240.418,42.822,240.679,42.883,241.551Zm18.04-58.164a.7.7,0,0,0,1.208-.7,32.359,32.359,0,0,1-3.479-22.293A30.7,30.7,0,0,1,80.008,137.57a52.017,52.017,0,0,1,1.437,20.889c-1.843,12.053-6.625,18.454-14.206,27.2-.562.649.347,1.65,1.04,1.115C73.173,183,77.633,175.9,80.005,170.219c4.152-9.941,5.144-22.418,1.621-32.728-.661-1.934-.862-2.078-2.766-1.481a32.963,32.963,0,0,0-16.786,12.155A31.737,31.737,0,0,0,60.923,183.387Zm.293,40.136c.017.887,1.531.9,1.563.006q.042-1.174.092-2.349c7.01-14.886,13.965-23.007,26.7-33.259.6-.484-.167-1.621-.868-1.269-9.624,4.831-21.192,20.143-25.627,30.119,1.02-21.894,2.816-37.635,8.34-59.561.2-.8-1.148-1.176-1.411-.376C64.82,172.57,62.155,193.8,61.36,210.379c-5.962-13.493-18.132-24.29-31.566-29.972-.847-.358-1.3.957-.485,1.331,14.564,6.643,25.246,18.58,31.9,32.939C61.148,217.622,61.159,220.565,61.216,223.523Z"/><path class="b" d="M170.256,185.371c-1.3,1.692-2.383,1.883-3.218,4.295a8.115,8.115,0,0,0,.231,5.752.69.69,0,0,1-1.238.608,8.629,8.629,0,0,1-.78-6.907c.556-1.788,2.308-4.484,4.251-4.89A.746.746,0,0,1,170.256,185.371Zm4.481,3.694a.713.713,0,0,0-.46-1.157c-2.038-.074-3.741,2.718-4.048,4.484a5.656,5.656,0,0,0,2.445,5.7.7.7,0,0,0,.873-1.1,5.031,5.031,0,0,1-1.542-4.347C172.424,190.246,174.081,189.709,174.737,189.065Zm51.184-6.716c-.155-.919-1.581-.814-1.576.065.039,6.034-2,12.311-12.476,14.387-11.69,2.317-23.222-.474-33.2-6.725a.664.664,0,0,0-.779,1.075c9.486,7.312,22.627,9.837,34.32,7.651C220.945,197.169,227.582,192.238,225.921,182.349ZM181.66,200.194c-1.228.116-18.491.621-19.668.033s-5.857-15.6-6.991-30.125c-.326-4.181-.98-6.109-6.076-6.86-4.129-.609-36.654-.3-39.545,0-2.486.262-4.374,1.237-4.168,6.211.489,11.822,6.73,34.034,10.095,35.837,3.659,1.96,61.87,1.457,66.206.586,3.577-.718,2.924-5.943.147-5.682ZM135.3,184.214c-.637-2.746-2.648-4.4-5.047-4.31-2.695.1-3.186,3.283-2.647,5.537.546,2.285,2.288,4.311,4.8,4.215C134.958,189.558,135.938,186.96,135.3,184.214Zm3.945,64.019c-.214-.8-1.446-.485-1.39.3.136,1.908,1.433,8.5,2.024,11.58.12.62,1.186.294,1.29-.275C141.416,258.5,139.732,250.038,139.246,248.233Zm8.666-.164c-.4-.628-1.5-.19-1.225.554,1.232,3.368,2.424,5.9,3.181,9.68.154.773,1.4.579,1.371-.232A24.892,24.892,0,0,0,147.912,248.069Zm17.971,9.888a30.819,30.819,0,0,1-1.7-9.7.688.688,0,0,0-1.354-.095,20.934,20.934,0,0,0,.856,9.159c.948,3.042,3.074,5.619,2.572,8.86a.763.763,0,0,0,1.42.5C169.266,263.875,166.852,260.545,165.883,257.957Zm-41.044-9.471a.687.687,0,0,0-1.264.5c.573,2.694,2.993,7.863,1.371,10.289a.728.728,0,0,0,.788,1.077C129.059,259.274,126.172,250.515,124.839,248.486Zm14.536-14.013c-1.856-7.292-4-19.594,2.066-25.4-9.479-.141-17.379-.32-19.337-.322-3.594,0-7.985.853-9.084,5.982-1.347,6.287,3.4,20.55,8.037,30.939,3.267.261,14.436.441,18.482-.066A85.073,85.073,0,0,1,139.375,234.473Zm5.565-25.354c-10.132,6.584-2.833,28.244.205,36.88a165.168,165.168,0,0,0,19.717-.069c-.746-3.2-.877-11.892.56-13.721s5.755-1.654,12.2-1.568c.047-7.449-.308-18.658,4.2-22.186C177.807,209.365,160.111,209.319,144.94,209.119Zm58.251-33.2c-9.612,3.735-14.645,2.454-24.379,2-6.693-.312-15.915,1.451-17.743,9.148a.7.7,0,0,0,1.331.4c3.046-7.941,12.348-8.109,19.5-7.464s15.568,1.23,21.951-2.815A.716.716,0,0,0,203.191,175.922Zm-2.525-35.858c-7.475-6.128-9.6-19.617-12.567-26.014-5.891-12.725-18.535-16.694-31.612-13.756-10.192,2.29-10.052,13.2,4.958,11.943,8.008-.671,11.823-2.684,11.851-2.7.9,3.511,4.819,8.882,5.281,7.889,1.131-2.434,3.519-1.406,3.908.833.564,3.248-1.209,4.884-3.051,4.812-.658-.025,2.615,11.373,3.431,13.5.213.557.925.463,1.438.479,4.129.124,11.217.774,16.363,3.019Zm-2.092-43.7c-8.178-6.41-22.586-13.571-33.012-14.18a4.067,4.067,0,0,0-2.012.26c-9.5,2.62-22.993,9.245-30.539,15.522-.464.386-.1,1.055.38,1.2,5.214,1.571,10.206,2.735,14.994,4.739.914.382,1.3-1.074.427-1.449a78.93,78.93,0,0,0-13.647-4.284c8.482-5.626,19.889-12.54,29.84-14.607,9.717.607,23.632,7.271,31.42,13.155a134.1,134.1,0,0,0-16.782,4.7.674.674,0,0,0,.41,1.283c6.445-1.717,11.679-3.54,18.228-4.835a.873.873,0,0,0,.293-1.5Zm-66.368,26.56a20.6,20.6,0,0,1,1.858,8.468c-.082.75-1.154.717-1.384.09-.363-.987-.5-2.244-.825-3.313-.119,1.911-.074,3.817-.179,5.723a.7.7,0,0,1-1.395.088,42.587,42.587,0,0,1-.3-5.669,22.4,22.4,0,0,0-1.246,4.066.655.655,0,0,1-1.281-.267c.222-1.757,1.08-6.378,1.98-8.017.429-.783,1.955-2.49,2.776-1.169Zm.17-22.2a.671.671,0,0,1,1.3.246A114.02,114.02,0,0,0,132.268,120c0,.938-1.393.82-1.428-.083-.207-5.2.322-14.182,1.536-19.19Zm26.152-7.388c-.134-.621-1.21-.753-1.291-.067-.121,1.031-.2,4.4-.179,5.393a.737.737,0,0,0,1.471.079,39.944,39.944,0,0,0,0-5.405Zm14.983-.945c-3.778-2.08-9.642-2.3-13.609-1.186a.654.654,0,1,0,.393,1.245,21.684,21.684,0,0,1,12.875,1.5,23.894,23.894,0,0,0-.074,5.328.722.722,0,0,0,1.444-.042c-.072-1.506-.061-2.894-.026-4.4.032-1.375.218-1.773-1-2.446Zm-2.832,44.505a17.294,17.294,0,0,0,6.291-4.7c.508-.577-.405-1.382-.972-.9-2.813,2.386-5.757,5.208-9.762,4.779-4.266-.457-5.5-4.8-6.39-8.331-.211-.842-1.523-.627-1.344.242.854,4.145,2.439,8.737,7.194,9.525a8.806,8.806,0,0,0,3.61-.168c.216,1.405-.032,2.763.079,3.957a.678.678,0,0,0,1.34-.041,17.755,17.755,0,0,0-.046-4.362Zm2.251-10.588a.7.7,0,0,0-1.372.163c.252,2.5-2.182,3.087-4.075,3.6a.657.657,0,0,0,.322,1.274c2.381-.226,5.833-1.411,5.125-5.033Zm-7.571-.42a3.247,3.247,0,0,1-1.558.052c.216-.752.439-1.5.615-2.263a.657.657,0,0,0-1.255-.387c-.258.7-.521,1.493-.716,2.221a1.3,1.3,0,0,0,1.1,1.851,4.8,4.8,0,0,0,2.325-.129.719.719,0,1,0-.507-1.345Zm-5.723-3.086c-.037-.574-.276-1.218-.939-1.264-.866-.059-1.087.737-.974,1.431.094.575.527,1.455,1.254,1.369.7-.081.693-1.013.659-1.536Zm9.482-3.141a1.056,1.056,0,0,0-1.524-.643,1.632,1.632,0,0,0,1.061,2.771c.865-.193.795-1.272.463-2.128Zm6.615-3.4A7.259,7.259,0,0,0,172,116.25c-.887-1.81-2.747-3.767-4.944-3.409-2.45.4-3.065,3.144-2.913,5.242a2.607,2.607,0,0,0-2.01.547c-.687-1.548-1.767-2.989-3.534-3.276-3.773-.614-4.47,4.4-3.8,7.126.524,2.116,2.149,4.354,4.6,4.05,3.683-.456,2.967-6.06,3.075-6.2a1.577,1.577,0,0,1,1.817-.7c.467,2.605,2.535,5.673,5.569,4.954,2.917-.692,3.32-4.615,2.638-7.008a15.562,15.562,0,0,1,3.114-.021.672.672,0,0,0,.117-1.288Zm-5.876,6.721c2.111-.99,1.422-4.944.643-6.391-.618-1.145-2.141-2.915-3.624-2.208-1.289.615-1.645,2.481-1.271,4.306.608,2.962,1.889,5.4,4.252,4.293Zm-8.883-2.88c-.274-1.721-1.153-3.276-2.868-3.32-2.184-.056-2.354,3.666-2.026,5.206.293,1.373,1.382,3.231,3.036,3.108C161.124,124.943,161.17,121.331,160.974,120.1Z"/></svg>