<?xml version="1.0" encoding="UTF-8" standalone="no"?>
<svg
   xmlns:dc="http://purl.org/dc/elements/1.1/"
   xmlns:cc="http://creativecommons.org/ns#"
   xmlns:rdf="http://www.w3.org/1999/02/22-rdf-syntax-ns#"
   xmlns:svg="http://www.w3.org/2000/svg"
   xmlns="http://www.w3.org/2000/svg"
   xmlns:sodipodi="http://sodipodi.sourceforge.net/DTD/sodipodi-0.dtd"
   xmlns:inkscape="http://www.inkscape.org/namespaces/inkscape"
   inkscape:export-ydpi="576"
   inkscape:export-xdpi="576"
   inkscape:export-filename="D:\Project Real\Maret 1\export\filled line\png\21 - Code file.png"
   width="64pt"
   height="64pt"
   viewBox="0 0 22.577778 22.577778"
   version="1.1"
   id="svg831"
   inkscape:version="1.0 (4035a4fb49, 2020-05-01)"
   sodipodi:docname="22 - EPUB file.svg">
  <defs
     id="defs825">
    <pattern
       id="EMFhbasepattern"
       patternUnits="userSpaceOnUse"
       width="6"
       height="6"
       x="0"
       y="0" />
    <pattern
       id="EMFhbasepattern-9"
       patternUnits="userSpaceOnUse"
       width="6"
       height="6"
       x="0"
       y="0" />
    <pattern
       id="EMFhbasepattern-0"
       patternUnits="userSpaceOnUse"
       width="6"
       height="6"
       x="0"
       y="0" />
    <pattern
       id="EMFhbasepattern-7"
       patternUnits="userSpaceOnUse"
       width="6"
       height="6"
       x="0"
       y="0" />
    <pattern
       id="EMFhbasepattern-2"
       patternUnits="userSpaceOnUse"
       width="6"
       height="6"
       x="0"
       y="0" />
    <pattern
       id="EMFhbasepattern-98"
       patternUnits="userSpaceOnUse"
       width="6"
       height="6"
       x="0"
       y="0" />
    <pattern
       id="EMFhbasepattern-6"
       patternUnits="userSpaceOnUse"
       width="6"
       height="6"
       x="0"
       y="0" />
    <pattern
       id="EMFhbasepattern-01"
       patternUnits="userSpaceOnUse"
       width="6"
       height="6"
       x="0"
       y="0" />
    <pattern
       id="EMFhbasepattern-07"
       patternUnits="userSpaceOnUse"
       width="6"
       height="6"
       x="0"
       y="0" />
    <pattern
       id="EMFhbasepattern-8"
       patternUnits="userSpaceOnUse"
       width="6"
       height="6"
       x="0"
       y="0" />
    <pattern
       id="EMFhbasepattern-4"
       patternUnits="userSpaceOnUse"
       width="6"
       height="6"
       x="0"
       y="0" />
    <pattern
       id="EMFhbasepattern-40"
       patternUnits="userSpaceOnUse"
       width="6"
       height="6"
       x="0"
       y="0" />
    <pattern
       id="EMFhbasepattern-08"
       patternUnits="userSpaceOnUse"
       width="6"
       height="6"
       x="0"
       y="0" />
    <pattern
       id="EMFhbasepattern-04"
       patternUnits="userSpaceOnUse"
       width="6"
       height="6"
       x="0"
       y="0" />
    <pattern
       id="EMFhbasepattern-014"
       patternUnits="userSpaceOnUse"
       width="6"
       height="6"
       x="0"
       y="0" />
    <pattern
       id="EMFhbasepattern-27"
       patternUnits="userSpaceOnUse"
       width="6"
       height="6"
       x="0"
       y="0" />
    <pattern
       id="EMFhbasepattern-09"
       patternUnits="userSpaceOnUse"
       width="6"
       height="6"
       x="0"
       y="0" />
    <pattern
       id="EMFhbasepattern-5"
       patternUnits="userSpaceOnUse"
       width="6"
       height="6"
       x="0"
       y="0" />
    <pattern
       id="EMFhbasepattern-018"
       patternUnits="userSpaceOnUse"
       width="6"
       height="6"
       x="0"
       y="0" />
    <inkscape:path-effect
       effect="fillet_chamfer"
       id="path-effect1165"
       is_visible="true"
       lpeversion="1"
       satellites_param="F,0,0,1,0,0,0,1 @ F,0,0,1,0,1.4486321,0,1 @ F,0,0,1,0,0,0,1 @ F,0,0,1,0,0,0,1 @ F,0,0,1,0,1.1651536,0,1 @ F,0,0,1,0,0,0,1 @ F,0,0,1,0,0,0,1 @ F,0,0,1,0,0,0,1 @ F,0,0,1,0,0,0,1 @ F,0,0,1,0,0,0,1 @ F,0,0,1,0,0,0,1 @ F,0,0,1,0,0,0,1 @ F,0,0,1,0,0,0,1 @ F,0,0,1,0,0,0,1"
       unit="px"
       method="auto"
       mode="F"
       radius="0"
       chamfer_steps="1"
       flexible="false"
       use_knot_distance="true"
       apply_no_radius="true"
       apply_with_radius="true"
       only_selected="true"
       hide_knots="false" />
  </defs>
  <sodipodi:namedview
     id="base"
     pagecolor="#ffffff"
     bordercolor="#666666"
     borderopacity="1.0"
     inkscape:pageopacity="0.0"
     inkscape:pageshadow="2"
     inkscape:zoom="6.2578125"
     inkscape:cx="42.666667"
     inkscape:cy="42.666667"
     inkscape:document-units="pt"
     inkscape:current-layer="layer1"
     showgrid="false"
     units="pt"
     inkscape:window-width="1366"
     inkscape:window-height="705"
     inkscape:window-x="-8"
     inkscape:window-y="-8"
     inkscape:window-maximized="1"
     inkscape:pagecheckerboard="true"
     inkscape:showpageshadow="false"
     inkscape:object-paths="true"
     inkscape:snap-intersection-paths="true"
     inkscape:snap-smooth-nodes="true"
     inkscape:snap-midpoints="true"
     showguides="true"
     inkscape:snap-bbox="true"
     inkscape:bbox-nodes="true"
     inkscape:snap-nodes="false"
     inkscape:snap-global="true"
     inkscape:document-rotation="0">
    <inkscape:grid
       type="xygrid"
       id="grid1378" />
    <sodipodi:guide
       position="0.97013831,21.607643"
       orientation="78.000048,0"
       id="guide1380"
       inkscape:locked="false" />
    <sodipodi:guide
       position="0.97013831,0.97013129"
       orientation="0,78.000005"
       id="guide1382"
       inkscape:locked="false" />
    <sodipodi:guide
       position="21.607639,0.97013129"
       orientation="-78.000048,0"
       id="guide1384"
       inkscape:locked="false" />
    <sodipodi:guide
       position="21.607639,21.607643"
       orientation="0,-78.000005"
       id="guide1386"
       inkscape:locked="false" />
  </sodipodi:namedview>
  <metadata
     id="metadata828">
    <rdf:RDF>
      <cc:Work
         rdf:about="">
        <dc:format>image/svg+xml</dc:format>
        <dc:type
           rdf:resource="http://purl.org/dc/dcmitype/StillImage" />
        <dc:title></dc:title>
      </cc:Work>
    </rdf:RDF>
  </metadata>
  <g
     inkscape:label="Icon"
     inkscape:groupmode="layer"
     id="layer1"
     transform="translate(0,-274.42223)">
    <g
       transform="matrix(1.2997933,0,0,1.2997933,39.930622,-89.323879)"
       style="display:inline;stroke-width:0.769353"
       id="g1417">
      <path
         style="color:#000000;font-style:normal;font-variant:normal;font-weight:normal;font-stretch:normal;font-size:medium;line-height:normal;font-family:sans-serif;font-variant-ligatures:normal;font-variant-position:normal;font-variant-caps:normal;font-variant-numeric:normal;font-variant-alternates:normal;font-variant-east-asian:normal;font-feature-settings:normal;font-variation-settings:normal;text-indent:0;text-align:start;text-decoration:none;text-decoration-line:none;text-decoration-style:solid;text-decoration-color:#000000;letter-spacing:normal;word-spacing:normal;text-transform:none;writing-mode:lr-tb;direction:ltr;text-orientation:mixed;dominant-baseline:auto;baseline-shift:baseline;text-anchor:start;white-space:normal;shape-padding:0;shape-margin:0;inline-size:0;clip-rule:nonzero;display:inline;overflow:visible;visibility:visible;isolation:auto;mix-blend-mode:normal;color-interpolation:sRGB;color-interpolation-filters:linearRGB;solid-color:#000000;solid-opacity:1;vector-effect:none;fill:#f9f9f9;fill-opacity:1;fill-rule:nonzero;stroke:none;stroke-width:0.407116;stroke-linecap:round;stroke-linejoin:round;stroke-miterlimit:4;stroke-dasharray:none;stroke-dashoffset:0;stroke-opacity:1;color-rendering:auto;image-rendering:auto;shape-rendering:auto;text-rendering:auto;enable-background:accumulate;stop-color:#000000"
         d="m -24.873047,280.5957 c -0.69601,0 -1.263745,0.56959 -1.263672,1.26563 v 12.22851 a 0.26460996,0.26460996 0 0 0 0.265625,0.26368 c 1.122764,0 8.926707,0 10.050782,0 2.18e-4,0 0.0017,0 0.002,0 a 0.26460996,0.26460996 0 0 0 0.179687,-0.0742 c 0.630744,-0.0996 1.142578,-0.59049 1.142578,-1.24805 v -8.78906 a 0.26460996,0.26460996 0 0 0 -0.06445,-0.17383 L -17.5,280.6875 a 0.26460996,0.26460996 0 0 0 -0.199219,-0.0918 z"
         id="path1205" />
      <path
         id="path1222"
         style="color:#000000;font-style:normal;font-variant:normal;font-weight:normal;font-stretch:normal;font-size:medium;line-height:normal;font-family:sans-serif;font-variant-ligatures:normal;font-variant-position:normal;font-variant-caps:normal;font-variant-numeric:normal;font-variant-alternates:normal;font-variant-east-asian:normal;font-feature-settings:normal;font-variation-settings:normal;text-indent:0;text-align:start;text-decoration:none;text-decoration-line:none;text-decoration-style:solid;text-decoration-color:#000000;letter-spacing:normal;word-spacing:normal;text-transform:none;writing-mode:lr-tb;direction:ltr;text-orientation:mixed;dominant-baseline:auto;baseline-shift:baseline;text-anchor:start;white-space:normal;shape-padding:0;shape-margin:0;inline-size:0;clip-rule:nonzero;display:inline;overflow:visible;visibility:visible;isolation:auto;mix-blend-mode:normal;color-interpolation:sRGB;color-interpolation-filters:linearRGB;solid-color:#000000;solid-opacity:1;vector-effect:none;fill:#dbdbdb;fill-opacity:1;fill-rule:nonzero;stroke:none;stroke-width:0.407116;stroke-linecap:round;stroke-linejoin:round;stroke-miterlimit:4;stroke-dasharray:none;stroke-dashoffset:0;stroke-opacity:1;color-rendering:auto;image-rendering:auto;shape-rendering:auto;text-rendering:auto;enable-background:accumulate;stop-color:#000000"
         d="m -17.963762,280.59583 0.02842,3.64422 c 0.0016,0.14465 0.118897,0.2615 0.26355,0.262 l 3.175517,0.005 v -0.2651 a 0.26460996,0.26460996 0 0 0 -0.06408,-0.17364 l -2.939872,-3.38119 a 0.26460996,0.26460996 0 0 0 -0.198954,-0.0915 z" />
      <path
         id="path1249"
         style="color:#000000;font-style:normal;font-variant:normal;font-weight:normal;font-stretch:normal;font-size:medium;line-height:normal;font-family:sans-serif;font-variant-ligatures:normal;font-variant-position:normal;font-variant-caps:normal;font-variant-numeric:normal;font-variant-alternates:normal;font-variant-east-asian:normal;font-feature-settings:normal;font-variation-settings:normal;text-indent:0;text-align:start;text-decoration:none;text-decoration-line:none;text-decoration-style:solid;text-decoration-color:#000000;letter-spacing:normal;word-spacing:normal;text-transform:none;writing-mode:lr-tb;direction:ltr;text-orientation:mixed;dominant-baseline:auto;baseline-shift:baseline;text-anchor:start;white-space:normal;shape-padding:0;shape-margin:0;inline-size:0;clip-rule:nonzero;display:inline;overflow:visible;visibility:visible;isolation:auto;mix-blend-mode:normal;color-interpolation:sRGB;color-interpolation-filters:linearRGB;solid-color:#000000;solid-opacity:1;vector-effect:none;fill:#dbdbdb;fill-opacity:1;fill-rule:nonzero;stroke:none;stroke-width:0.407116;stroke-linecap:round;stroke-linejoin:round;stroke-miterlimit:4;stroke-dasharray:none;stroke-dashoffset:0;stroke-opacity:1;color-rendering:auto;image-rendering:auto;shape-rendering:auto;text-rendering:auto;enable-background:accumulate;stop-color:#000000"
         d="m -26.136907,283.55482 v 10.53527 a 0.26460996,0.26460996 0 0 0 0.265617,0.26355 h 7.834148 c 0.03275,-0.0813 0.0528,-0.16729 0.05271,-0.25579 v -0.002 -8.79481 c 0,-0.95674 -0.786444,-1.74615 -1.74408,-1.74615 z" />
      <path
         style="color:#000000;font-style:normal;font-variant:normal;font-weight:normal;font-stretch:normal;font-size:medium;line-height:normal;font-family:sans-serif;font-variant-ligatures:normal;font-variant-position:normal;font-variant-caps:normal;font-variant-numeric:normal;font-variant-alternates:normal;font-variant-east-asian:normal;font-feature-settings:normal;font-variation-settings:normal;text-indent:0;text-align:start;text-decoration:none;text-decoration-line:none;text-decoration-style:solid;text-decoration-color:#000000;letter-spacing:normal;word-spacing:normal;text-transform:none;writing-mode:lr-tb;direction:ltr;text-orientation:mixed;dominant-baseline:auto;baseline-shift:baseline;text-anchor:start;white-space:normal;shape-padding:0;shape-margin:0;inline-size:0;clip-rule:nonzero;display:inline;overflow:visible;visibility:visible;isolation:auto;mix-blend-mode:normal;color-interpolation:sRGB;color-interpolation-filters:linearRGB;solid-color:#000000;solid-opacity:1;vector-effect:none;fill:#9a605a;fill-opacity:1;fill-rule:nonzero;stroke:none;stroke-width:0.407116;stroke-linecap:round;stroke-linejoin:round;stroke-miterlimit:4;stroke-dasharray:none;stroke-dashoffset:0;stroke-opacity:1;color-rendering:auto;image-rendering:auto;shape-rendering:auto;text-rendering:auto;enable-background:accumulate;stop-color:#000000"
         d="m -28.3125,284.03516 c -0.696007,0 -1.263672,0.56961 -1.263672,1.26562 v 9.90625 a 0.26460996,0.26460996 0 0 0 0,0.01 c 0.01539,0.37533 0.205982,0.69571 0.451172,0.91797 0.24519,0.22225 0.549425,0.36456 0.867188,0.33398 l -0.02539,0.002 h 9.554687 v -0.002 c 0.0017,-2e-5 0.0022,0.002 0.0039,0.002 a 0.26465221,0.26465221 0 0 0 -0.0039,-0.52929 h -0.0059 c -0.253603,0.005 -0.426036,-0.0865 -0.556641,-0.23047 -0.130604,-0.14396 -0.20974,-0.34879 -0.21875,-0.55469 -0.009,-0.2059 0.05056,-0.40507 0.171875,-0.54687 0.121314,-0.14181 0.302579,-0.24264 0.611329,-0.2461 a 0.26460996,0.26460996 0 0 0 0.261718,-0.26562 v -8.79688 c 0,-0.69601 -0.567664,-1.26562 -1.263672,-1.26562 z"
         id="path1076" />
      <path
         style="color:#000000;font-style:normal;font-variant:normal;font-weight:normal;font-stretch:normal;font-size:medium;line-height:normal;font-family:sans-serif;font-variant-ligatures:normal;font-variant-position:normal;font-variant-caps:normal;font-variant-numeric:normal;font-variant-alternates:normal;font-variant-east-asian:normal;font-feature-settings:normal;font-variation-settings:normal;text-indent:0;text-align:start;text-decoration:none;text-decoration-line:none;text-decoration-style:solid;text-decoration-color:#000000;letter-spacing:normal;word-spacing:normal;text-transform:none;writing-mode:lr-tb;direction:ltr;text-orientation:mixed;dominant-baseline:auto;baseline-shift:baseline;text-anchor:start;white-space:normal;shape-padding:0;shape-margin:0;inline-size:0;clip-rule:nonzero;display:inline;overflow:visible;visibility:visible;isolation:auto;mix-blend-mode:normal;color-interpolation:sRGB;color-interpolation-filters:linearRGB;solid-color:#000000;solid-opacity:1;vector-effect:none;fill:#fed883;fill-opacity:1;fill-rule:nonzero;stroke:none;stroke-width:0.407116;stroke-linecap:round;stroke-linejoin:round;stroke-miterlimit:4;stroke-dasharray:none;stroke-dashoffset:0;stroke-opacity:1;color-rendering:auto;image-rendering:auto;shape-rendering:auto;text-rendering:auto;enable-background:accumulate;stop-color:#000000"
         d="m -26.112173,285.67364 c -0.669401,0 -1.217243,0.54595 -1.217244,1.21536 v 0.11271 c 0,0.6694 0.547843,1.21724 1.217244,1.21724 h 4.183331 c 0.669401,0 1.217243,-0.54784 1.217243,-1.21724 V 286.889 c 0,-0.66941 -0.547842,-1.21536 -1.217243,-1.21536 z"
         id="path1061" />
      <path
         style="color:#000000;font-style:normal;font-variant:normal;font-weight:normal;font-stretch:normal;font-size:medium;line-height:normal;font-family:sans-serif;font-variant-ligatures:normal;font-variant-position:normal;font-variant-caps:normal;font-variant-numeric:normal;font-variant-alternates:normal;font-variant-east-asian:normal;font-feature-settings:normal;font-variation-settings:normal;text-indent:0;text-align:start;text-decoration:none;text-decoration-line:none;text-decoration-style:solid;text-decoration-color:#000000;letter-spacing:normal;word-spacing:normal;text-transform:none;writing-mode:lr-tb;direction:ltr;text-orientation:mixed;dominant-baseline:auto;baseline-shift:baseline;text-anchor:start;white-space:normal;shape-padding:0;shape-margin:0;inline-size:0;clip-rule:nonzero;display:inline;overflow:visible;visibility:visible;isolation:auto;mix-blend-mode:normal;color-interpolation:sRGB;color-interpolation-filters:linearRGB;solid-color:#000000;solid-opacity:1;vector-effect:none;fill:#f9f9f9;fill-opacity:1;fill-rule:nonzero;stroke:none;stroke-width:0.407116;stroke-linecap:round;stroke-linejoin:round;stroke-miterlimit:4;stroke-dasharray:none;stroke-dashoffset:0;stroke-opacity:1;color-rendering:auto;image-rendering:auto;shape-rendering:auto;text-rendering:auto;enable-background:accumulate;stop-color:#000000"
         d="m -28.253906,294.35352 h 8.53125 c -0.179384,0.22585 -0.330077,0.48587 -0.330078,0.79492 -2e-6,0.30895 0.150797,0.56714 0.330078,0.79297 h -8.560547 c -0.404841,0 -0.763675,-0.35147 -0.763672,-0.79297 2e-6,-0.44151 0.35146,-0.79492 0.792969,-0.79492 z"
         id="path1102" />
      <path
         id="path1243"
         style="color:#000000;font-style:normal;font-variant:normal;font-weight:normal;font-stretch:normal;font-size:medium;line-height:normal;font-family:sans-serif;font-variant-ligatures:normal;font-variant-position:normal;font-variant-caps:normal;font-variant-numeric:normal;font-variant-alternates:normal;font-variant-east-asian:normal;font-feature-settings:normal;font-variation-settings:normal;text-indent:0;text-align:start;text-decoration:none;text-decoration-line:none;text-decoration-style:solid;text-decoration-color:#000000;letter-spacing:normal;word-spacing:normal;text-transform:none;writing-mode:lr-tb;direction:ltr;text-orientation:mixed;dominant-baseline:auto;baseline-shift:baseline;text-anchor:start;white-space:normal;shape-padding:0;shape-margin:0;inline-size:0;clip-rule:nonzero;display:inline;overflow:visible;visibility:visible;isolation:auto;mix-blend-mode:normal;color-interpolation:sRGB;color-interpolation-filters:linearRGB;solid-color:#000000;solid-opacity:1;vector-effect:none;fill:#fec872;fill-opacity:1;fill-rule:nonzero;stroke:none;stroke-width:0.407116;stroke-linecap:round;stroke-linejoin:round;stroke-miterlimit:4;stroke-dasharray:none;stroke-dashoffset:0;stroke-opacity:1;color-rendering:auto;image-rendering:auto;shape-rendering:auto;text-rendering:auto;enable-background:accumulate;stop-color:#000000"
         d="m -25.976644,285.75441 c -0.568886,0 -1.039302,0.42298 -1.121667,0.9696 0.05566,-0.008 0.111349,-0.0172 0.169274,-0.0172 h 3.914205 c 0.626337,0 1.138873,0.51114 1.138873,1.13748 v 0.1051 c 0,0.058 -0.0087,0.11393 -0.01721,0.16974 0.546226,-0.083 0.969599,-0.55372 0.969599,-1.12214 v -0.10509 c 0,-0.62634 -0.512536,-1.13748 -1.138872,-1.13748 z" />
      <path
         sodipodi:nodetypes="sscssccccsscccssccccsscsscccscccscscsccccssscscsssscsscssscsscsccccccccccccccccccccccccssscccsssccccccssssccccccsscssccssscccssscccssscccsccsccscscssscsccscccsccscc"
         d="m -18.463473,285.30074 c 0,-0.69601 -0.569549,-1.26556 -1.265555,-1.26556 h -5.878711 v -2.17402 c 0,-0.412 0.32232,-0.73639 0.734322,-0.73639 h 6.937561 v 3.17603 c 5.29e-4,0.14617 0.119446,0.26411 0.265616,0.26355 h 2.646351 v 8.46667 c 0,0.44151 -0.353275,0.79323 -0.794784,0.79323 h -1.851567 c -0.146938,-5.8e-4 -0.266193,0.11868 -0.265616,0.26562 5.02e-4,0.14618 0.119436,0.26413 0.265616,0.26355 h 1.851567 c 0.727492,0 1.32395,-0.59491 1.32395,-1.3224 v -8.78913 c -3.7e-4,-0.0641 -0.0237,-0.12564 -0.06615,-0.17363 l -2.939872,-3.38119 c -0.05,-0.058 -0.122394,-0.0912 -0.198954,-0.0915 h -7.173718 c -0.696011,0 -1.264006,0.56955 -1.264006,1.26556 v 2.17402 h -2.175579 c -0.696007,0 -1.263814,0.56955 -1.263488,1.26556 l 0.0047,9.95239 c 0.05116,0.66962 0.548542,1.16551 1.172538,1.20872 0.0069,7.6e-4 0.01376,0.001 0.02066,0.002 0.02217,10e-4 0.04317,0.007 0.06563,0.007 h 9.583913 c 0.146176,5.8e-4 0.265112,-0.11737 0.265617,-0.26355 5.82e-4,-0.14694 -0.118679,-0.2662 -0.265617,-0.26562 -0.441511,0 -0.792719,-0.35173 -0.792717,-0.79323 2e-6,-0.44151 0.351208,-0.79479 0.792717,-0.79479 0.03654,1.5e-4 0.07164,-0.007 0.103353,-0.0207 0.08973,-0.0376 0.151255,-0.12373 0.160455,-0.22531 z m 1.056783,-3.70003 2.11615,2.43447 h -2.11615 z m -10.906312,2.96364 h 8.583974 c 0.412004,0 0.736388,0.32438 0.736388,0.73639 v 8.52351 h -9.261966 c -0.298264,0 -0.570912,0.10384 -0.792718,0.27233 v -8.79584 c 0,-0.41201 0.322318,-0.73639 0.734322,-0.73639 z m 2.117185,3.7052 h 4.349605 c 0.696007,0 1.265556,-0.57006 1.265556,-1.32447 0,-0.7544 -0.569549,-1.3224 -1.265556,-1.3224 h -4.349605 c -0.696007,0 -1.263488,0.568 -1.263488,1.3224 0,0.75441 0.567481,1.32447 1.263488,1.32447 z m 0,-2.11718 h 4.349605 c 0.412005,0 0.73639,0.32231 0.73639,0.79271 0,0.4704 -0.324385,0.79479 -0.73639,0.79479 h -4.349605 c -0.412006,0 -0.734321,-0.32439 -0.734321,-0.79479 0,-0.4704 0.322315,-0.79271 0.734321,-0.79271 z m -2.057238,2.90886 c -0.146929,-5.5e-4 -0.266179,0.11869 -0.265618,0.26562 v 2.11718 c 2.65e-4,0.14633 0.119295,0.26463 0.265618,0.26407 h 1.056783 c 0.146325,5.8e-4 0.265329,-0.11774 0.265615,-0.26407 5.29e-4,-0.14693 -0.118682,-0.26619 -0.265615,-0.26561 h -0.793234 v -0.52917 h 0.793234 c 0.146174,5.8e-4 0.265112,-0.11737 0.265615,-0.26355 5.29e-4,-0.14694 -0.118679,-0.2662 -0.265615,-0.26562 h -0.793234 v -0.52916 h 0.793234 c 0.146325,5.8e-4 0.265329,-0.11774 0.265615,-0.26407 5.29e-4,-0.14693 -0.118682,-0.26619 -0.265615,-0.26562 z m 2.115632,10e-4 c -0.145313,5.8e-4 -0.262968,0.11823 -0.263549,0.26355 -2.25e-4,0.70702 0,1.41057 0,2.11718 -5.83e-4,0.14613 0.117424,0.26505 0.263549,0.26562 0.146328,-2.9e-4 0.264639,-0.11929 0.264067,-0.26562 v -0.79272 h 0.529167 c 0.435237,0 0.794779,-0.35954 0.794783,-0.79478 3e-6,-0.43524 -0.359538,-0.79323 -0.794783,-0.79323 z m 2.38125,0 c -0.145521,2.9e-4 -0.263498,0.11803 -0.264066,0.26355 v 1.05885 c 0,0.32382 0.0526,0.63778 0.220658,0.89452 0.168062,0.25673 0.474444,0.42943 0.838192,0.42943 0.363749,0 0.668061,-0.1727 0.836125,-0.42943 0.168063,-0.25674 0.22066,-0.5707 0.220658,-0.89452 v -1.05885 c -5.68e-4,-0.14552 -0.118545,-0.26327 -0.264067,-0.26355 -0.145319,5.5e-4 -0.262983,0.11823 -0.263549,0.26355 v 1.05885 c 1e-6,0.26067 -0.05219,0.47727 -0.134876,0.60358 -0.08269,0.12631 -0.173535,0.1912 -0.394291,0.1912 -0.220755,0 -0.312121,-0.0649 -0.394808,-0.1912 -0.08269,-0.12631 -0.134358,-0.34291 -0.134359,-0.60358 v -1.05885 c -5.69e-4,-0.14613 -0.119491,-0.26413 -0.265617,-0.26355 z m 2.646351,0 c -0.146171,-5.6e-4 -0.265099,0.11738 -0.265617,0.26355 v 2.11718 c -5.56e-4,0.14693 0.118684,0.26618 0.265617,0.26562 h 0.792716 c 0.435237,0 0.7953,-0.35955 0.7953,-0.79479 0,-0.29016 -0.07861,-0.46776 -0.421679,-0.52916 0.342597,-0.0153 0.421676,-0.23937 0.421679,-0.52917 3e-6,-0.43525 -0.360055,-0.79323 -0.7953,-0.79323 z m -4.763534,0.52916 h 0.529167 c 0.149257,0 0.265618,0.11481 0.265616,0.26407 -2e-6,0.14926 -0.116357,0.26562 -0.265616,0.26562 h -0.529167 z m 5.027083,0 h 0.529167 c 0.149258,0 0.265618,0.11481 0.265617,0.26407 -2e-6,0.14926 -0.116359,0.26562 -0.265617,0.26562 h -0.529167 z m 0,1.05885 h 0.529167 c 0.149259,0 0.265617,0.11428 0.265617,0.26355 0,0.14926 -0.116358,0.26562 -0.265617,0.26562 h -0.529167 z m -7.408333,1.58802 c -0.145319,5.6e-4 -0.262985,0.11823 -0.263551,0.26355 -5.29e-4,0.14613 0.117425,0.26505 0.263551,0.26562 h 8.467183 c 0.146934,5.8e-4 0.266192,-0.11869 0.265617,-0.26562 -5.82e-4,-0.14613 -0.119491,-0.26412 -0.265617,-0.26355 z m 0,2.11512 h 8.476485 c -0.168779,0.22244 -0.273367,0.49586 -0.273368,0.79478 -2e-6,0.29844 0.104046,0.57136 0.272335,0.79323 h -8.475452 c -0.441512,0 -0.79272,-0.35173 -0.792718,-0.79323 3e-6,-0.44151 0.351208,-0.79478 0.792718,-0.79478 z m 0,0.52916 c -0.146126,5.9e-4 -0.264123,0.11949 -0.263551,0.26562 5.29e-4,0.14532 0.118232,0.26298 0.263551,0.26355 h 1.588016 c 0.146127,5.8e-4 0.265048,-0.11742 0.265618,-0.26355 5.82e-4,-0.14693 -0.118684,-0.26619 -0.265618,-0.26562 z m 3.96875,0 c -0.146126,5.9e-4 -0.264122,0.11949 -0.26355,0.26562 5.56e-4,0.14532 0.118231,0.26298 0.26355,0.26355 h 2.910417 c 0.146125,5.8e-4 0.265047,-0.11742 0.265617,-0.26355 5.82e-4,-0.14693 -0.118684,-0.26619 -0.265617,-0.26562 z"
         style="color:#000000;font-style:normal;font-variant:normal;font-weight:normal;font-stretch:normal;font-size:medium;line-height:normal;font-family:sans-serif;font-variant-ligatures:normal;font-variant-position:normal;font-variant-caps:normal;font-variant-numeric:normal;font-variant-alternates:normal;font-variant-east-asian:normal;font-feature-settings:normal;font-variation-settings:normal;text-indent:0;text-align:start;text-decoration:none;text-decoration-line:none;text-decoration-style:solid;text-decoration-color:#000000;letter-spacing:normal;word-spacing:normal;text-transform:none;writing-mode:lr-tb;direction:ltr;text-orientation:mixed;dominant-baseline:auto;baseline-shift:baseline;text-anchor:start;white-space:normal;shape-padding:0;shape-margin:0;inline-size:0;clip-rule:nonzero;display:inline;overflow:visible;visibility:visible;isolation:auto;mix-blend-mode:normal;color-interpolation:sRGB;color-interpolation-filters:linearRGB;solid-color:#000000;solid-opacity:1;vector-effect:none;fill:#000000;fill-opacity:1;fill-rule:nonzero;stroke:none;stroke-width:0.407116;stroke-linecap:round;stroke-linejoin:round;stroke-miterlimit:4;stroke-dasharray:none;stroke-dashoffset:0;stroke-opacity:1;color-rendering:auto;image-rendering:auto;shape-rendering:auto;text-rendering:auto;enable-background:accumulate;stop-color:#000000"
         id="path1349" />
    </g>
  </g>
</svg>
