<?xml version="1.0" ?><svg style="enable-background:new 0 0 512 512;" version="1.1" viewBox="0 0 512 512" xml:space="preserve" xmlns="http://www.w3.org/2000/svg" xmlns:xlink="http://www.w3.org/1999/xlink"><style type="text/css">
	.st0{fill:#16ADE1;}
	.st1{fill:#1B3954;}
</style><g id="Layer_1"/><g id="Layer_2"><g><path class="st1" d="M361.5,41h-211c-14.4,0-26,11.6-26,26v378c0,14.4,11.6,26,26,26h211c14.4,0,26-11.6,26-26V67    C387.5,52.6,375.9,41,361.5,41z M175.8,415.5H159c-5.2,0-9.5-4.3-9.5-9.5s4.3-9.5,9.5-9.5h16.8c5.2,0,9.5,4.3,9.5,9.5    S181,415.5,175.8,415.5z M251,424.5v22.2c-19.1-2.3-34.1-17.8-35.8-37h22.4c0.1,0,0.2,0,0.3,0c1.4,6.9,6.5,12.3,13.2,14.2    C251,424.1,251,424.3,251,424.5z M238.6,399.8c-0.3-0.1-0.7-0.1-1-0.1h-22.1c2.8-18,17.3-32.1,35.5-34.4v22.2c0,0.2,0,0.4,0,0.7    C245.2,389.8,240.6,394.1,238.6,399.8z M261,446.7v-22.2c0-0.2,0-0.4,0-0.7c6.7-1.8,11.8-7.3,13.2-14.2c0.1,0,0.2,0,0.3,0h22.4    C295.1,428.9,280.1,444.4,261,446.7z M261,388.2c0-0.2,0-0.4,0-0.7v-22.2c18.2,2.2,32.7,16.3,35.5,34.4h-22.1c-0.4,0-0.7,0-1,0.1    C271.4,394.1,266.8,389.8,261,388.2z M353,415.5h-16.8c-5.2,0-9.5-4.3-9.5-9.5s4.3-9.5,9.5-9.5H353c5.2,0,9.5,4.3,9.5,9.5    S358.2,415.5,353,415.5z M362.5,342.3h-213V67c0-0.6,0.5-1,1-1h211c0.5,0,1,0.4,1,1V342.3z"/><path class="st0" d="M334.5,203l-54.4-31.4v46c0,2.8-0.5,5.6-1.4,8.4c-0.9,2.7-2.2,5.4-3.9,8c-4.8,7.1-12.4,12.7-21.4,15.8    c-4.9,1.7-9.9,2.6-14.9,2.6c0,0,0,0,0,0c-14.3,0-26.1-7.3-30-18.6c-3.5-10.1-0.1-21.8,8.9-30.5c4.4-4.3,10.1-7.7,16.3-9.9    c2-0.7,4.1-1.3,6.2-1.7v-43.2l-33.8-19.5c-6.4-3.7-14.5,0.9-14.5,8.4v148.2c0,7.4,8,12.1,14.5,8.4l128.3-74.1    C340.9,216.1,340.9,206.8,334.5,203z"/><path class="st1" d="M224.4,210.5c-6,5.8-8.8,13.3-6.4,20c3.6,10.4,18,14.8,32.2,9.9c7.2-2.5,12.9-6.9,16.3-12    c1.2-1.8,2.1-3.6,2.7-5.5c0.6-1.8,0.9-3.5,0.9-5.3v-81.2l7.4-0.8l20.6-2.2v-20.2l-28,3l-20.1,2.2v82.5c-4.1-0.2-8.5,0.5-12.9,2    C232.1,204.6,227.8,207.3,224.4,210.5z"/></g></g></svg>